<?xml version="1.0" encoding="utf-8"?>
<!-- Generator: Adobe Illustrator 23.0.6, SVG Export Plug-In . SVG Version: 6.00 Build 0)  -->
<svg version="1.1" id="Layer_1" xmlns="http://www.w3.org/2000/svg" xmlns:xlink="http://www.w3.org/1999/xlink" x="0px" y="0px"
	 viewBox="0 0 635 239" style="enable-background:new 0 0 635 239;" xml:space="preserve">
<style type="text/css">
	.st0{fill:#85B1DD;}
	.st1{fill:#275893;}
	.st2{fill:#FFFFFF;}
</style>
<g>
	<g>
		<polygon class="st0" points="25.5,214.3 61.7,211.1 69.2,171.8 33,175 		"/>
		<polygon class="st1" points="56.1,165.1 92.3,161.8 99.9,122.6 63.7,125.8 		"/>
		<polygon class="st0" points="86.9,115.6 123.1,112.4 130.6,73.1 94.4,76.3 		"/>
		<polygon class="st0" points="75.3,189 111.5,185.7 119,146.4 82.8,149.7 		"/>
		<polygon class="st1" points="106,139.5 142.2,136.3 149.7,97 113.5,100.2 		"/>
		<polygon class="st1" points="117.5,67.2 153.7,64 161.2,24.7 125,27.9 		"/>
		<polygon class="st0" points="136.5,91.6 172.7,88.3 180.2,49 144,52.3 		"/>
		<polygon class="st0" points="125.1,163.5 161.3,160.3 168.8,121 132.6,124.3 		"/>
		<polygon class="st1" points="155.6,115.5 191.8,112.2 199.3,73 163.1,76.2 		"/>
		<polygon class="st0" points="174.7,139.5 210.9,136.2 218.4,97 182.2,100.2 		"/>
	</g>
	<g>
		<path class="st2" d="M233.8,71.8h31c21,0,35.1,7.8,35.1,27.1c0,27.3-20.2,39.3-48.5,39.3h-17.8l-9,44.7h-13L233.8,71.8z
			 M251.4,127.6c23,0,35.2-9.1,35.2-27c0-12.9-8.6-18.3-25.2-18.3h-16.8l-8.8,45.2L251.4,127.6L251.4,127.6z"/>
		<path class="st2" d="M296.3,153.5c0-29.5,20.2-54.9,45.2-54.9c11.7,0,20.7,4.9,25.2,12.4h0.7l3.2-10.3h10.7l-16.4,82.4h-10.7
			l1.4-12.5h-0.7c-8.6,8.8-19.7,14.6-30.2,14.6C307.5,185,296.3,174,296.3,153.5z M356.8,158.2l7.6-36.6
			c-5.6-8.6-13.4-12.2-21.2-12.2c-18.8,0-33.6,20-33.6,42c0,15.6,7.3,22.7,18.8,22.7C337.5,174.2,347.9,168.6,356.8,158.2z"/>
		<path class="st2" d="M405.2,100.6h10.7l-3.6,23.6h0.7c9.1-14.1,22.5-25.6,36.8-25.6c7.3,0,12.7,1.5,16.6,4.2l-5.1,11.2
			c-4.2-2.7-8.3-3.6-13.7-3.6c-12.7,0-25.9,12-37.3,29.7l-8.6,42.9h-12.9L405.2,100.6z"/>
		<path class="st2" d="M466.3,170l7.5-8.3c8.1,9.1,19.5,13.2,31.3,13.2c11.5,0,20-3.9,20-13c0-8-8-11.2-21.7-15.8
			c-17.1-5.8-24.7-12.7-24.7-24.1c0-15.8,14.1-23.4,30.8-23.4c15.8,0,27.5,6.4,34.4,13.4l-7.3,8c-6.8-5.8-16.3-11.2-28.5-11.2
			c-10.7,0-17.1,4.4-17.1,11.7c0,7.6,7.1,11,20.3,15.6c15.4,5.2,26.1,10.7,26.1,24.1c0,17.8-15.4,24.9-34.7,24.9
			C488.5,185,474.3,179.1,466.3,170z"/>
		<path class="st2" d="M564.6,163.2c0-2.9,0.3-5.6,1.2-9.1l17.1-81.2h-27.5l2.2-10.5h40.2l-19.3,92.2c-0.5,2.5-0.8,5.1-0.8,7.5
			c0,8.5,4.9,12.2,12.5,12.2c5.4,0,10.2-1.5,16.1-4.6l3.2,10c-7.3,3.6-14.7,5.4-22.9,5.4C573.9,185,564.6,177.6,564.6,163.2z"/>
	</g>
</g>
</svg>
